# xmcd
#
# Track frame offsets: 
#        150
#        16621
#        40724
#        63332
#        87534
#        108951
#        127158
#        147703
#        165053
#        184526
#        203680
#        223830
#
# Disc length: 3269 seconds
#
# Revision: 0
# Processed by: cddbd v1.5.2PL0 Copyright (c) Steve Scherf et al.
# Submitted via: ExactAudioCopy v1.1
#
DISCID=a10cc30c
DTITLE=白玛多吉 - 漫步云端 
DYEAR=2017
DGENRE=
TTITLE0=卷珠帘 JuanZhuLian
TTITLE1=月光曲 Moonlight Sonata
TTITLE2=风吹麦浪 Wind in the Wheat
TTITLE3=一生爱你千百回 Never stop loving you
TTITLE4=愿得一人心 Would like to have a heart
TTITLE5=每一步 Each Step
TTITLE6=万物生 All Things Alive
TTITLE7=南屏晚钟 Evening bell at Nanping hill
TTITLE8=我心已许 My heart has given already
TTITLE9=天籁之爱 Love of nature
TTITLE10=我和草原有个约定 I have an appointment with plains
TTITLE11=梦回云南 Dreaming Back to Yunnan
EXTD=
EXTT0=
EXTT1=
EXTT2=
EXTT3=
EXTT4=
EXTT5=
EXTT6=
EXTT7=
EXTT8=
EXTT9=
EXTT10=
EXTT11=
PLAYORDER=
